<?xml version="1.0" standalone="no"?>
<!DOCTYPE svg PUBLIC "-//W3C//DTD SVG 20010904//EN"
 "http://www.w3.org/TR/2001/REC-SVG-20010904/DTD/svg10.dtd">
<svg version="1.0" xmlns="http://www.w3.org/2000/svg"
 width="221.000000pt" height="268.000000pt" viewBox="0 0 221.000000 268.000000"
 preserveAspectRatio="xMidYMid meet">

<g transform="translate(0.000000,268.000000) scale(0.100000,-0.100000)"
fill="#000000" stroke="none">
<path d="M330 2458 c-72 -49 -75 -59 -78 -268 l-3 -189 25 -17 c24 -15 28 -15
51 0 l25 16 0 174 c0 155 2 175 18 189 17 16 88 17 814 17 757 0 796 -1 811
-18 16 -17 17 -103 17 -1034 0 -971 -1 -1016 -18 -1031 -17 -16 -88 -17 -814
-17 -757 0 -796 1 -811 18 -14 16 -17 44 -17 189 0 152 -2 172 -18 186 -24 22
-45 21 -66 -2 -15 -17 -17 -40 -14 -204 3 -203 6 -212 72 -261 27 -21 37 -21
850 -24 l823 -2 34 23 c18 12 44 38 56 56 l23 34 0 1037 0 1037 -23 34 c-12
18 -38 44 -56 56 l-34 23 -817 0 -817 0 -33 -22z"/>
<path d="M1099 1856 c-145 -39 -229 -142 -237 -292 -6 -108 14 -167 78 -237
l48 -53 -47 -22 c-134 -61 -231 -205 -231 -344 l0 -48 471 0 472 0 -5 74 c-4
53 -13 90 -32 130 -31 64 -123 153 -193 187 l-48 24 39 39 c73 73 107 188 87
288 -25 119 -118 221 -231 252 -66 19 -108 19 -171 2z m179 -115 c81 -42 126
-117 126 -208 -1 -79 -38 -144 -107 -187 -88 -54 -182 -45 -262 26 -53 46 -75
96 -75 168 0 90 43 160 125 203 43 23 146 22 193 -2z m-18 -541 c115 -22 219
-90 261 -172 37 -72 59 -68 -341 -68 -401 0 -378 -5 -341 69 65 126 254 203
421 171z"/>
<path d="M66 1834 c-21 -21 -20 -47 2 -67 16 -15 47 -17 221 -17 120 0 210 4
222 10 22 12 26 59 7 78 -9 9 -73 12 -224 12 -180 0 -215 -2 -228 -16z"/>
<path d="M67 1522 c-20 -22 -22 -53 -5 -70 17 -17 439 -17 456 0 18 18 15 53
-6 71 -16 15 -47 17 -224 17 -186 0 -206 -2 -221 -18z"/>
<path d="M67 1212 c-20 -22 -22 -53 -5 -70 17 -17 439 -17 456 0 18 18 15 53
-6 71 -16 15 -47 17 -224 17 -186 0 -206 -2 -221 -18z"/>
<path d="M62 898 c-19 -19 -14 -55 10 -72 19 -13 58 -16 224 -16 182 0 202 2
217 18 20 22 22 53 5 70 -17 17 -439 17 -456 0z"/>
</g>
</svg>
